<?xml version="1.0" encoding="UTF-8" standalone="no"?>
<svg
   xmlns:dc="http://purl.org/dc/elements/1.1/"
   xmlns:cc="http://creativecommons.org/ns#"
   xmlns:rdf="http://www.w3.org/1999/02/22-rdf-syntax-ns#"
   xmlns:svg="http://www.w3.org/2000/svg"
   xmlns="http://www.w3.org/2000/svg"
   xmlns:sodipodi="http://sodipodi.sourceforge.net/DTD/sodipodi-0.dtd"
   xmlns:inkscape="http://www.inkscape.org/namespaces/inkscape"
   style="enable-background:new"
   viewBox="0 0 1337 1275"
   height="1275"
   width="1337"
   id="svg3713"
   version="1.1"
   sodipodi:docname="mapa1.svg"
   inkscape:version="0.92.4 (5da689c313, 2019-01-14)">
  <sodipodi:namedview
     pagecolor="#ffffff"
     bordercolor="#666666"
     borderopacity="1"
     objecttolerance="10"
     gridtolerance="10"
     guidetolerance="10"
     inkscape:pageopacity="0"
     inkscape:pageshadow="2"
     inkscape:window-width="1366"
     inkscape:window-height="705"
     id="namedview900"
     showgrid="false"
     inkscape:zoom="0.54349041"
     inkscape:cx="592.82705"
     inkscape:cy="738.23334"
     inkscape:window-x="-8"
     inkscape:window-y="-8"
     inkscape:window-maximized="1"
     inkscape:current-layer="layer2" />
  <metadata
     id="metadata3719">
    <rdf:RDF>
      <cc:Work
         rdf:about="">
        <dc:format>image/svg+xml</dc:format>
        <dc:type
           rdf:resource="http://purl.org/dc/dcmitype/StillImage" />
        <dc:title />
      </cc:Work>
    </rdf:RDF>
  </metadata>
  <defs
     id="defs3717" />
  <g
     style="display:inline"
     id="layer2"
     transform="translate(-3.6799177,0.91997943)">
    <path
       inkscape:connector-curvature="0"
       id="path4679"
       d="m 766.14146,512.45803 89.54964,16.91389 v -6.96454 l -86.75122,-16.9139 z"
       style="opacity:1;fill:#bdbdbd;fill-opacity:1;stroke:#000000;stroke-width:1.18354952px;stroke-linecap:butt;stroke-linejoin:miter;stroke-opacity:1" />
    <path
       style="fill:#ab47bc;stroke:#000000;stroke-width:1px;stroke-linecap:butt;stroke-linejoin:miter;stroke-opacity:1;fill-opacity:1"
       d="M 138.75712,323.42031 163.54667,315.46084 79.090973,52.015219 50.000005,44.838436 Z"
       id="path2577"
       inkscape:connector-curvature="0" />
    <path
       inkscape:connector-curvature="0"
       id="path4557"
       d="M 177.53881,310.31601 228.07814,292.59404 157.29554,69.175408 96.670521,55.357049 Z"
       style="opacity:1;fill:#ab47bc;fill-opacity:1;stroke:#000000;stroke-width:1.18354952px;stroke-linecap:butt;stroke-linejoin:miter;stroke-opacity:1" />
    <path
       inkscape:connector-curvature="0"
       id="path4559"
       d="M 181.56476,72.81485 240.03704,288.25727 287.3156,270.1783 233.72537,93.111262 c -1.52039,-4.864935 2.42091,-7.362247 2.42091,-7.362247 z"
       style="opacity:1;fill:#ab47bc;fill-opacity:1;stroke:#000000;stroke-width:1.18354952px;stroke-linecap:butt;stroke-linejoin:miter;stroke-opacity:1" />
    <path
       inkscape:connector-curvature="0"
       id="path4561"
       d="m 252.77731,89.558605 c 0,0 -4.2098,5.118861 3.25267,27.007435 7.46248,21.88858 47.43808,148.80772 47.43808,148.80772 L 356.47867,245.98551 311.4091,104.65278 Z"
       style="opacity:1;fill:#ab47bc;fill-opacity:1;stroke:#000000;stroke-width:1.18354952px;stroke-linecap:butt;stroke-linejoin:miter;stroke-opacity:1" />
    <path
       inkscape:connector-curvature="0"
       id="path4563"
       d="m 323.55998,108.97281 43.0444,132.54847 52.98626,-17.25419 -31.98588,-100.85473 z"
       style="opacity:1;fill:#66bb6a;fill-opacity:1;stroke:#000000;stroke-width:1.18354952px;stroke-linecap:butt;stroke-linejoin:miter;stroke-opacity:1" />
    <path
       inkscape:connector-curvature="0"
       id="path4565"
       d="m 403.91675,126.71151 28.89274,91.92625 45.41296,-15.43445 -19.72418,-63.21734 z"
       style="opacity:1;fill:#ab47bc;fill-opacity:1;stroke:#000000;stroke-width:1.18354952px;stroke-linecap:butt;stroke-linejoin:miter;stroke-opacity:1" />
    <path
       inkscape:connector-curvature="0"
       id="path4567"
       d="m 481.63463,141.83164 55.46563,174.13964 38.58858,-41.32876 -37.90179,-117.86089 z"
       style="opacity:1;fill:#ffee58;fill-opacity:1;stroke:#000000;stroke-width:1.18354952px;stroke-linecap:butt;stroke-linejoin:miter;stroke-opacity:1" />
    <path
       inkscape:connector-curvature="0"
       id="path4569"
       d="m 557.64641,161.10168 30.32848,96.65291 74.62474,-73.62521 z"
       style="opacity:1;fill:#66bb6a;fill-opacity:1;stroke:#000000;stroke-width:1.18354952px;stroke-linecap:butt;stroke-linejoin:miter;stroke-opacity:1" />
    <path
       inkscape:connector-curvature="0"
       id="path4571"
       d="m 439.63388,239.02096 38.26951,120.21702 39.17799,-34.82273 -32.64832,-102.5043 z"
       style="opacity:1;fill:#ffee58;fill-opacity:1;stroke:#000000;stroke-width:1.18354952px;stroke-linecap:butt;stroke-linejoin:miter;stroke-opacity:1" />
    <path
       inkscape:connector-curvature="0"
       id="path4573"
       d="m 372.815,262.53316 52.05345,-18.56347 43.70685,131.18726 -52.23732,25.86832 z"
       style="opacity:1;fill:#ffee58;fill-opacity:1;stroke:#000000;stroke-width:1.18354952px;stroke-linecap:butt;stroke-linejoin:miter;stroke-opacity:1" />
    <path
       inkscape:connector-curvature="0"
       id="path4575"
       d="M 363.00833,267.02334 408.07789,409.1549 357.11677,434.68292 309.83821,286.24144 Z"
       style="opacity:1;fill:#ffee58;fill-opacity:1;stroke:#000000;stroke-width:1.18354952px;stroke-linecap:butt;stroke-linejoin:miter;stroke-opacity:1" />
    <path
       inkscape:connector-curvature="0"
       id="path4577"
       d="m 293.20716,291.38627 48.34657,149.26626 -47.41376,9.12456 -47.73279,-142.44589 z"
       style="opacity:1;fill:#ffee58;fill-opacity:1;stroke:#000000;stroke-width:1.18354952px;stroke-linecap:butt;stroke-linejoin:miter;stroke-opacity:1" />
    <path
       inkscape:connector-curvature="0"
       id="path4579"
       d="m 184.4113,331.33711 50.64263,-18.54674 45.0939,142.95634 -54.15864,5.91019 z"
       style="opacity:1;fill:#ffee58;fill-opacity:1;stroke:#000000;stroke-width:1.18354952px;stroke-linecap:butt;stroke-linejoin:miter;stroke-opacity:1" />
    <path
       inkscape:connector-curvature="0"
       id="path4581"
       d="m 145.95849,342.63842 23.24075,-6.55619 40.05509,126.62903 -25.58214,3.97974 z"
       style="opacity:1;fill:#ffee58;fill-opacity:1;stroke:#000000;stroke-width:1.18354952px;stroke-linecap:butt;stroke-linejoin:miter;stroke-opacity:1" />
    <path
       inkscape:connector-curvature="0"
       id="path4583"
       d="m 284.54546,518.57533 5.2857,-26.3949 66.80703,-22.50462 146.45106,32.83285 -10.38531,56.17532 z"
       style="opacity:1;fill:#ec407a;fill-opacity:1;stroke:#000000;stroke-width:1.18354952px;stroke-linecap:butt;stroke-linejoin:miter;stroke-opacity:1" />
    <path
       inkscape:connector-curvature="0"
       id="path4585"
       d="m 278.41155,532.79011 -10.52872,48.18049 212.7932,40.55974 9.22948,-47.52428 z"
       style="opacity:1;fill:#ec407a;fill-opacity:1;stroke:#000000;stroke-width:1.18354952px;stroke-linecap:butt;stroke-linejoin:miter;stroke-opacity:1" />
    <path
       inkscape:connector-curvature="0"
       id="path4587"
       d="m 214.85118,582.10349 23.32023,64.24718 227.66,46.67436 9.30908,-57.81414 z"
       style="opacity:1;fill:#ec407a;fill-opacity:1;stroke:#000000;stroke-width:1.18354952px;stroke-linecap:butt;stroke-linejoin:miter;stroke-opacity:1" />
    <path
       inkscape:connector-curvature="0"
       id="path4589"
       d="m 242.83546,661.69831 22.38743,60.97354 189.72149,39.33763 9.07296,-55.04738 z"
       style="opacity:1;fill:#ec407a;fill-opacity:1;stroke:#000000;stroke-width:1.18354952px;stroke-linecap:butt;stroke-linejoin:miter;stroke-opacity:1" />
    <path
       inkscape:connector-curvature="0"
       id="path4591"
       d="m 211.11995,566.18452 40.86599,7.05927 14.16976,-70.73513 -62.49823,3.97975 z"
       style="opacity:1;fill:#66bb6a;fill-opacity:1;stroke:#000000;stroke-width:1.18354952px;stroke-linecap:butt;stroke-linejoin:miter;stroke-opacity:1" />
    <path
       inkscape:connector-curvature="0"
       id="path4593"
       d="m 270.81974,739.30327 16.79056,45.76702 146.60422,83.43391 18.77418,-91.62443 z"
       style="opacity:1;fill:#66bb6a;fill-opacity:1;stroke:#000000;stroke-width:1.18354952px;stroke-linecap:butt;stroke-linejoin:miter;stroke-opacity:1" />
    <path
       inkscape:connector-curvature="0"
       id="path4595"
       d="m 399.54742,449.77709 15.85776,17.90884 90.96926,16.91391 18.48358,-91.34994 c 10.30802,-28.86058 23.68895,-33.13946 36.99821,-37.99166 l 28.91708,-49.74675 c 0,0 -58.76698,58.70117 -98.87778,89.54417 -40.1108,30.84299 -92.34811,54.72143 -92.34811,54.72143 z"
       style="opacity:1;fill:#66bb6a;fill-opacity:1;stroke:#000000;stroke-width:1.18354952px;stroke-linecap:butt;stroke-linejoin:miter;stroke-opacity:1" />
    <path
       inkscape:connector-curvature="0"
       id="path4597"
       d="m 741.21889,338.78045 -150.44558,-33.26896 -28.91708,49.74675 c 0,0 10.2609,-3.97974 27.05147,-1.98986 16.79056,1.98986 142.92909,30.91104 142.92909,30.91104 z"
       style="opacity:1;fill:#ffca28;fill-opacity:1;stroke:#000000;stroke-width:1.18354952px;stroke-linecap:butt;stroke-linejoin:miter;stroke-opacity:1" />
    <path
       inkscape:connector-curvature="0"
       id="path4599"
       d="m 536.67038,418.9341 c 0,0 0.93281,-49.74676 55.96855,-40.79234 55.03575,8.95441 135.59693,27.29935 135.59693,27.29935 l -10.60048,53.29041 z"
       style="opacity:1;fill:#ffca28;fill-opacity:1;stroke:#000000;stroke-width:1.18354952px;stroke-linecap:butt;stroke-linejoin:miter;stroke-opacity:1" />
    <path
       inkscape:connector-curvature="0"
       id="path4601"
       d="m 524.54386,489.57451 10.26089,-56.71131 180.03219,39.79741 -10.31492,55.1901 z"
       style="opacity:1;fill:#ffca28;fill-opacity:1;stroke:#000000;stroke-width:1.18354952px;stroke-linecap:butt;stroke-linejoin:miter;stroke-opacity:1" />
    <path
       inkscape:connector-curvature="0"
       id="path4603"
       d="m 512.41734,562.20478 10.2609,-56.7113 179.09938,38.80246 -11.30176,55.45324 z"
       style="opacity:1;fill:#ffca28;fill-opacity:1;stroke:#000000;stroke-width:1.18354952px;stroke-linecap:butt;stroke-linejoin:miter;stroke-opacity:1" />
    <path
       inkscape:connector-curvature="0"
       id="path4605"
       d="m 509.4413,576.2286 178.32068,38.35444 -9.33058,47.5264 -178.22939,-37.08577 z"
       style="opacity:1;fill:#66bb6a;fill-opacity:1;stroke:#000000;stroke-width:1.18354952px;stroke-linecap:butt;stroke-linejoin:miter;stroke-opacity:1" />
    <path
       inkscape:connector-curvature="0"
       id="path4607"
       d="m 484.74142,698.27825 12.57336,-58.33055 176.04033,34.98321 -9.06861,56.25892 z"
       style="opacity:1;fill:#29b6f6;fill-opacity:1;stroke:#000000;stroke-width:1.18354952px;stroke-linecap:butt;stroke-linejoin:miter;stroke-opacity:1" />
    <path
       inkscape:connector-curvature="0"
       id="path4609"
       d="m 482.92373,711.44322 -10.61752,53.25777 179.39092,38.49691 9.99893,-57.42104 z"
       style="opacity:1;fill:#29b6f6;fill-opacity:1;stroke:#000000;stroke-width:1.18354952px;stroke-linecap:butt;stroke-linejoin:miter;stroke-opacity:1" />
    <path
       inkscape:connector-curvature="0"
       id="path4611"
       d="m 470.26014,778.68319 -11.54577,54.66532 180.3145,37.77984 10.3066,-54.64067 z"
       style="opacity:1;fill:#29b6f6;fill-opacity:1;stroke:#000000;stroke-width:1.18354952px;stroke-linecap:butt;stroke-linejoin:miter;stroke-opacity:1" />
    <path
       inkscape:connector-curvature="0"
       id="path4613"
       d="m 484.43306,858.6955 c 0,0 -14.92495,-5.96961 -19.58899,-1.98987 -4.66406,3.97975 -6.52967,15.91896 -1.86562,21.88857 4.66404,5.96962 158.57757,86.5594 158.57757,86.5594 l 19.58899,-71.63536 z"
       style="opacity:1;fill:#66bb6a;fill-opacity:1;stroke:#000000;stroke-width:1.18354952px;stroke-linecap:butt;stroke-linejoin:miter;stroke-opacity:1" />
    <path
       inkscape:connector-curvature="0"
       id="path4615"
       d="m 714.80584,792.18339 -37.43088,202.2436 -55.81894,-29.27339 19.58899,-71.63536 c 0,0 9.32962,5.3692 15.85776,-1.98987 6.82982,-7.69915 26.24523,-105.59814 26.24523,-105.59814 z"
       style="opacity:1;fill:#29b6f6;fill-opacity:1;stroke:#000000;stroke-width:1.18354952px;stroke-linecap:butt;stroke-linejoin:miter;stroke-opacity:1" />
    <path
       inkscape:connector-curvature="0"
       id="path4617"
       d="m 719.07747,776.41084 -33.29589,-5.68712 27.50708,-151.98417 34.73536,7.07325 z"
       style="opacity:1;fill:#29b6f6;fill-opacity:1;stroke:#000000;stroke-width:1.18354952px;stroke-linecap:butt;stroke-linejoin:miter;stroke-opacity:1" />
    <path
       inkscape:connector-curvature="0"
       id="path4619"
       d="m 715.79278,604.19726 35.32562,6.75936 39.32121,-190.29005 -35.56659,-7.77339 z"
       style="opacity:1;fill:#7e57c2;fill-opacity:1;stroke:#000000;stroke-width:1.18354952px;stroke-linecap:butt;stroke-linejoin:miter;stroke-opacity:1" />
    <path
       inkscape:connector-curvature="0"
       id="path4621"
       d="m 803.1595,487.47999 28.57293,6.07426 12.39433,-63.04298 -28.93882,-5.8599 z"
       style="opacity:1;fill:#7e57c2;fill-opacity:1;stroke:#000000;stroke-width:1.18354952px;stroke-linecap:butt;stroke-linejoin:miter;stroke-opacity:1" />
    <path
       inkscape:connector-curvature="0"
       id="path4623"
       d="m 778.91029,616.89351 27.73432,5.3213 15.75971,-77.70959 -30.14421,-6.17888 z"
       style="opacity:1;fill:#7e57c2;fill-opacity:1;stroke:#000000;stroke-width:1.18354952px;stroke-linecap:butt;stroke-linejoin:miter;stroke-opacity:1" />
    <path
       inkscape:connector-curvature="0"
       id="path4625"
       d="m 833.69611,627.80268 32.38532,-192.38805 103.01523,20.03665 -12.60527,65.37634 -17.49579,-3.68368 c 0,0 -19.87339,-5.68085 -24.53751,15.21279 -4.664,20.89364 -22.06621,107.38756 -22.06621,107.38756 z"
       style="opacity:1;fill:#7e57c2;fill-opacity:1;stroke:#000000;stroke-width:1.18354952px;stroke-linecap:butt;stroke-linejoin:miter;stroke-opacity:1" />
    <path
       inkscape:connector-curvature="0"
       id="path4627"
       d="m 929.38305,647.19791 39.71361,-191.74663 58.51284,13.17998 -36.97859,190.42288 z"
       style="opacity:1;fill:#66bb6a;fill-opacity:1;stroke:#000000;stroke-width:1.18354952px;stroke-linecap:butt;stroke-linejoin:miter;stroke-opacity:1" />
    <path
       inkscape:connector-curvature="0"
       id="path4629"
       d="m 1042.9248,522.25967 9.6999,-50.65029 192.3305,41.05419 -23.6164,125.31003 -191.3762,-37.55116 8.3452,-50.40512 177.8541,36.1941 5.061,-26.71554 z"
       style="opacity:1;fill:#42a5f5;fill-opacity:1;stroke:#000000;stroke-width:1.18354952px;stroke-linecap:butt;stroke-linejoin:miter;stroke-opacity:1" />
    <path
       inkscape:connector-curvature="0"
       id="path4631"
       d="m 758.52184,387.21675 34.46403,6.39969 38.69832,-189.34893 -36.51507,-7.1623 z"
       style="opacity:1;fill:#7e57c2;fill-opacity:1;stroke:#000000;stroke-width:1.18354952px;stroke-linecap:butt;stroke-linejoin:miter;stroke-opacity:1" />
    <path
       inkscape:connector-curvature="0"
       id="path4633"
       d="m 615.95916,284.61784 129.77687,30.56357 9.91439,-50.30559 -73.4618,-16.07566 c 0,0 -41.04361,-15.91896 -66.22946,35.81768 z"
       style="opacity:1;fill:#ffca28;fill-opacity:1;stroke:#000000;stroke-width:1.18354952px;stroke-linecap:butt;stroke-linejoin:miter;stroke-opacity:1" />
    <path
       inkscape:connector-curvature="0"
       id="path4635"
       d="m 750.2837,243.82549 10.2609,-48.75183 c 0,0 0,-4.97468 -11.19372,-0.99493 -11.1937,3.97974 -58.76698,19.8987 -58.76698,19.8987 0,0 -11.19371,4.97468 -10.2609,12.93416 0.93281,7.95949 53.17013,14.92404 53.17013,14.92404 0,0 9.3281,4.97467 16.79057,1.98986 z"
       style="opacity:1;fill:#bdbdbd;fill-opacity:1;stroke:#000000;stroke-width:1.18354952px;stroke-linecap:butt;stroke-linejoin:miter;stroke-opacity:1" />
    <path
       inkscape:connector-curvature="0"
       id="path4637"
       d="m 819.84117,400.02323 29.99626,5.70715 36.00333,-190.86841 -28.52308,-5.39898 z"
       style="opacity:1;fill:#7e57c2;fill-opacity:1;stroke:#000000;stroke-width:1.18354952px;stroke-linecap:butt;stroke-linejoin:miter;stroke-opacity:1" />
    <path
       inkscape:connector-curvature="0"
       id="path4639"
       d="m 875.61887,412.18902 7.86038,-44.20589 158.94765,31.20875 -8.6592,42.63764 z"
       style="opacity:1;fill:#7e57c2;fill-opacity:1;stroke:#000000;stroke-width:1.18354952px;stroke-linecap:butt;stroke-linejoin:miter;stroke-opacity:1" />
    <path
       inkscape:connector-curvature="0"
       id="path4641"
       d="m 888.04515,347.40341 8.39527,-42.08969 157.50458,31.37559 -8.0109,43.85243 z"
       style="opacity:1;fill:#7e57c2;fill-opacity:1;stroke:#000000;stroke-width:1.18354952px;stroke-linecap:butt;stroke-linejoin:miter;stroke-opacity:1" />
    <path
       inkscape:connector-curvature="0"
       id="path4645"
       d="m 972.19958,232.66041 36.53132,7.59236 -12.03924,70.76234 -35.80008,-8.26764 z"
       style="opacity:1;fill:#7e57c2;fill-opacity:1;stroke:#000000;stroke-width:1.18354952px;stroke-linecap:butt;stroke-linejoin:miter;stroke-opacity:1" />
    <path
       inkscape:connector-curvature="0"
       id="path4647"
       d="m 1035.1883,245.28641 -12.5243,70.06403 35.4467,6.08001 13.561,-70.37354 z"
       style="opacity:1;fill:#66bb6a;fill-opacity:1;stroke:#000000;stroke-width:1.18354952px;stroke-linecap:butt;stroke-linejoin:miter;stroke-opacity:1" />
    <path
       inkscape:connector-curvature="0"
       id="path4649"
       d="m 1083.4672,328.04556 13.0526,-71.7275 57.048,12.27042 -12.7477,70.53001 z"
       style="opacity:1;fill:#bdbdbd;fill-opacity:1;stroke:#000000;stroke-width:1.18354952px;stroke-linecap:butt;stroke-linejoin:miter;stroke-opacity:1" />
    <path
       inkscape:connector-curvature="0"
       id="path4651"
       d="m 1073.7115,384.37824 7.7865,-43.60607 51.0304,11.94286 c 0,0 22.3874,4.97468 27.0515,-16.9139 4.664,-21.88858 12.437,-64.33825 12.437,-64.33825 L 1287,295.44643 l -37.5821,189.4674 -188.9728,-36.40488 9.1642,-43.22381 140.3423,27.35459 27.2584,-136.08267 -28.9171,-6.96454 -23.0995,117.53329 z"
       style="opacity:1;fill:#42a5f5;fill-opacity:1;stroke:#000000;stroke-width:1.18354952px;stroke-linecap:butt;stroke-linejoin:miter;stroke-opacity:1" />
    <path
       inkscape:connector-curvature="0"
       id="path4653"
       d="m 1216.9765,656.72966 -189.9693,-38.68714 -10.0401,47.05072 190.6609,36.39272 z"
       style="opacity:1;fill:#42a5f5;fill-opacity:1;stroke:#000000;stroke-width:1.18354952px;stroke-linecap:butt;stroke-linejoin:miter;stroke-opacity:1" />
    <path
       inkscape:connector-curvature="0"
       id="path4655"
       d="m 1204.0261,716.85313 -14.1215,74.17701 -190.34026,-34.98769 14.97216,-76.58301 z"
       style="opacity:1;fill:#66bb6a;fill-opacity:1;stroke:#000000;stroke-width:1.18354952px;stroke-linecap:butt;stroke-linejoin:miter;stroke-opacity:1" />
    <path
       inkscape:connector-curvature="0"
       id="path4657"
       d="m 1188.3409,806.52549 -12.6962,60.1295 -191.49073,-37.95502 12.39134,-59.54864 z"
       style="opacity:1;fill:#ffa726;fill-opacity:1;stroke:#000000;stroke-width:1.18354952px;stroke-linecap:butt;stroke-linejoin:miter;stroke-opacity:1" />
    <path
       inkscape:connector-curvature="0"
       id="path4659"
       d="m 1172.0711,883.2324 -9.4858,49.51829 -191.59752,-37.95503 10.1598,-50.67365 z"
       style="opacity:1;fill:#ffa726;fill-opacity:1;stroke:#000000;stroke-width:1.18354952px;stroke-linecap:butt;stroke-linejoin:miter;stroke-opacity:1" />
    <path
       inkscape:connector-curvature="0"
       id="path4661"
       d="m 968.87486,908.03216 188.78154,40.63746 -33.3163,173.55158 -189.3602,-37.6754 8.16778,-43.0175 152.30632,28.9562 15.8578,-91.53405 -150.38389,-28.54618 z"
       style="opacity:1;fill:#ffa726;fill-opacity:1;stroke:#000000;stroke-width:1.18354952px;stroke-linecap:butt;stroke-linejoin:miter;stroke-opacity:1" />
    <path
       inkscape:connector-curvature="0"
       id="path4663"
       d="m 955.5017,979.08263 -6.42277,33.00767 121.99957,27.4455 6.7527,-36.0558 z"
       style="opacity:1;fill:#ffa726;fill-opacity:1;stroke:#000000;stroke-width:1.18354952px;stroke-linecap:butt;stroke-linejoin:miter;stroke-opacity:1" />
    <path
       inkscape:connector-curvature="0"
       id="path4665"
       d="m 707.71701,973.11303 -5.69495,35.34597 211.5033,43.254 7.13478,-35.2329 z"
       style="opacity:1;fill:#ff7043;fill-opacity:1;stroke:#000000;stroke-width:1.18354952px;stroke-linecap:butt;stroke-linejoin:miter;stroke-opacity:1" />
    <path
       inkscape:connector-curvature="0"
       id="path4667"
       d="m 722.24955,902.02849 -10.5191,56.43242 211.09196,42.57649 11.8868,-55.54713 z"
       style="opacity:1;fill:#ff7043;fill-opacity:1;stroke:#000000;stroke-width:1.18354952px;stroke-linecap:butt;stroke-linejoin:miter;stroke-opacity:1" />
    <path
       inkscape:connector-curvature="0"
       id="path4669"
       d="m 901.34187,1116.7331 12.18349,-65.0201 -211.5033,-43.254 z"
       style="opacity:1;fill:#66bb6a;fill-opacity:1;stroke:#000000;stroke-width:1.18354952px;stroke-linecap:butt;stroke-linejoin:miter;stroke-opacity:1" />
    <path
       inkscape:connector-curvature="0"
       id="path4671"
       d="m 936.84559,931.25967 10.26084,-55.78526 -211.06095,-44.53246 -9.4262,57.49894 z"
       style="opacity:1;fill:#ff7043;fill-opacity:1;stroke:#000000;stroke-width:1.18354952px;stroke-linecap:butt;stroke-linejoin:miter;stroke-opacity:1" />
    <path
       inkscape:connector-curvature="0"
       id="path4673"
       d="m 952.03536,860.1204 9.32811,-54.85643 -212.65108,-42.08226 -10.35901,53.93579 z"
       style="opacity:1;fill:#ff7043;fill-opacity:1;stroke:#000000;stroke-width:1.18354952px;stroke-linecap:butt;stroke-linejoin:miter;stroke-opacity:1" />
    <path
       inkscape:connector-curvature="0"
       id="path4675"
       d="m 964.28157,790.00821 9.87636,-53.41385 -211.47989,-43.91509 -11.16723,56.35901 z"
       style="opacity:1;fill:#ff7043;fill-opacity:1;stroke:#000000;stroke-width:1.18354952px;stroke-linecap:butt;stroke-linejoin:miter;stroke-opacity:1" />
    <path
       inkscape:connector-curvature="0"
       id="path4677"
       d="m 978.21383,720.33948 10.81268,-46.1866 -213.21277,-42.61653 -8.59625,45.75219 z"
       style="opacity:1;fill:#ff7043;fill-opacity:1;stroke:#000000;stroke-width:1.18354952px;stroke-linecap:butt;stroke-linejoin:miter;stroke-opacity:1" />
    <path
       inkscape:connector-curvature="0"
       id="path4681"
       d="m 937.77832,1134.2925 c 0,0 -13.99211,-8.9544 -11.19369,-19.8986 2.79842,-10.9443 20.5218,-8.9544 20.5218,-8.9544 l 175.54317,36.1095 -16.6502,83.451 z"
       style="opacity:1;fill:#66bb6a;fill-opacity:1;stroke:#000000;stroke-width:1.18354952px;stroke-linecap:butt;stroke-linejoin:miter;stroke-opacity:1" />
    <path
       inkscape:connector-curvature="0"
       id="path4645-9"
       d="m 912.07252,219.90251 37.3607,7.59236 -12.86852,71.64687 -37.4588,-7.3831 z"
       style="opacity:1;fill:#7e57c2;fill-opacity:1;stroke:#000000;stroke-width:1.18354952px;stroke-linecap:butt;stroke-linejoin:miter;stroke-opacity:1" />
    <text
       style="font-size:14.20259476px;fill:#fafafa;stroke-width:1.18354952"
       id="text881"
       y="190.86926"
       x="104.16859"
       transform="scale(0.96827564,1.0327638)">46</text>
    <text
       style="font-size:14.20259476px;fill:#000000;stroke-width:1.18354952"
       id="text883"
       transform="matrix(0.3152397,0.97649733,-0.91552261,0.33623499,0,0)"
       y="-64.567192"
       x="131.06602">Maria De Jesús Benjarano</text>
    <text
       style="font-size:14.20259476px;fill:#fafafa;stroke-width:1.18354952"
       id="text885"
       y="190.86926"
       x="169.26382"
       transform="scale(0.96827564,1.0327638)">45</text>
    <text
       style="font-size:14.20259476px;fill:#000000;stroke-width:1.18354952"
       id="text887"
       transform="matrix(0.3152397,0.97649733,-0.91552261,0.33623499,0,0)"
       y="-135.58017"
       x="178.408">Clara Calderon</text>
    <text
       style="font-size:14.20259476px;fill:#fafafa;stroke-width:1.18354952"
       id="text889"
       y="190.86926"
       x="234.35905"
       transform="scale(0.96827564,1.0327638)">44</text>
    <text
       style="font-size:14.20259476px;fill:#000000;stroke-width:1.18354952"
       id="text891"
       transform="matrix(0.3152397,0.97649733,-0.91552261,0.33623499,0,0)"
       y="-200.6754"
       x="172.49026">Maria De Jesús Benjarano</text>
    <text
       style="font-size:14.20259476px;fill:#fafafa;stroke-width:1.18354952"
       id="text893"
       y="190.86926"
       x="311.28976"
       transform="scale(0.96827564,1.0327638)">43</text>
    <text
       style="font-size:14.20259476px;fill:#000000;stroke-width:1.18354952"
       id="text895"
       transform="matrix(0.3152397,0.97649733,-0.91552261,0.33623499,0,0)"
       y="-271.68835"
       x="190.24352">Clara Calderon</text>
    <text
       style="font-size:14.20259476px;display:inline;fill:#fafafa;stroke-width:1.18354952;enable-background:new"
       id="text885-5"
       y="190.86938"
       x="452.95868"
       transform="scale(0.96827562,1.0327638)">42</text>
  </g>
</svg>
